# xmcd
#
# Track frame offsets:
# 150
# 23297
# 35527
# 53355
# 68837
# 98217
# 120765
# 144465
# 167305
# 189060
#
# Disc length: 3207 seconds
#
#
# Revision: 3
# Processed by: cddbd v1.5.1PL2 Copyright (c) Steve Scherf et al.
# Submitted via: FreeRIP 2.945 
#
DISCID=650c850a
DTITLE=Canned Heat and John Lee Hooker - Hooker 'n Heat
DYEAR=1981
DGENRE=Blues
TTITLE0=Hell Hound
TTITLE1=Strut My Stuff
TTITLE2=Open Up Your Back Door
TTITLE3=House of Blue Lights
TTITLE4=It Hurts Me Too
TTITLE5=Wrapped Up
TTITLE6=Medley: Let's Work Together/Going Up the Country
TTITLE7=Tease Me Baby
TTITLE8=Serves Me Right To Suffer
TTITLE9=Nobody Else But You
EXTD=YEAR: 1981
EXTT0=
EXTT1=
EXTT2=
EXTT3=
EXTT4=
EXTT5=
EXTT6=
EXTT7=
EXTT8=
EXTT9=
PLAYORDER=
